<svg width="64" height="65" viewBox="0 0 64 65" fill="none" xmlns="http://www.w3.org/2000/svg">
<g clipPath="url(#clip0_0_1161)">
<path fill-rule="evenodd" clip-rule="evenodd" d="M3.52 10.752C2.888 18.3307 3.08533 25.952 4.112 33.488C4.13025 33.7688 4.25605 34.0318 4.46324 34.2222C4.67043 34.4126 4.94305 34.5157 5.22439 34.5102C5.50572 34.5047 5.7741 34.391 5.97369 34.1927C6.17329 33.9943 6.28873 33.7267 6.296 33.4454C6.99774 25.8607 6.76488 18.2186 5.60267 10.6907C5.59864 10.5541 5.56775 10.4197 5.51176 10.295C5.45578 10.1704 5.37579 10.058 5.27637 9.96428C5.17695 9.87056 5.06004 9.79733 4.93232 9.74879C4.8046 9.70025 4.66857 9.67733 4.532 9.68136C4.39542 9.68539 4.26098 9.71628 4.13634 9.77226C4.0117 9.82825 3.89931 9.90823 3.80559 10.0077C3.71186 10.1071 3.63864 10.224 3.59009 10.3517C3.54155 10.4794 3.51597 10.6155 3.52 10.752Z" fill="#1F80B9"/>
<path fill-rule="evenodd" clip-rule="evenodd" d="M18.472 1.72537C15.6933 32.7574 20.5573 26.2107 20.496 25.272C21.1138 17.4404 21.1298 9.57283 20.544 1.7387C20.5458 1.46394 20.4383 1.19973 20.2453 1.00419C20.1497 0.907367 20.036 0.830321 19.9106 0.777448C19.7853 0.724575 19.6507 0.696911 19.5147 0.696036C19.2399 0.694268 18.9757 0.801722 18.7802 0.994759C18.5846 1.1878 18.4738 1.4506 18.472 1.72537Z" fill="#1F80B9"/>
<path fill-rule="evenodd" clip-rule="evenodd" d="M34.7627 7.32537C33.8936 12.95 33.9783 18.6809 35.0133 24.2774C35.0331 24.5599 35.1617 24.8237 35.3721 25.0133C35.5825 25.2029 35.8583 25.3034 36.1414 25.2938C36.4244 25.2841 36.6927 25.165 36.8896 24.9614C37.0866 24.7579 37.1969 24.4859 37.1973 24.2027C37.8659 18.5832 37.7438 12.8977 36.8347 7.31204C36.8329 7.03728 36.722 6.77447 36.5265 6.58143C36.331 6.38839 36.0668 6.28094 35.792 6.28271C35.5172 6.28447 35.2544 6.39532 35.0614 6.59086C34.8683 6.7864 34.7609 7.05061 34.7627 7.32537Z" fill="#1F80B9"/>
<path fill-rule="evenodd" clip-rule="evenodd" d="M49.7333 9.58403C49.7374 9.72743 49.7696 9.86864 49.8282 9.99959C49.8868 10.1305 49.9706 10.2487 50.0749 10.3472C50.1791 10.4458 50.3017 10.5228 50.4358 10.574C50.5698 10.6251 50.7126 10.6494 50.856 10.6454C50.9994 10.6413 51.1406 10.6091 51.2716 10.5505C51.4025 10.4919 51.5206 10.4081 51.6192 10.3038C51.7177 10.1996 51.7948 10.0769 51.8459 9.94292C51.8971 9.80889 51.9214 9.6661 51.9173 9.5227C54.1547 -1.77864 46.584 -3.0373 49.7333 9.58403Z" fill="#1F80B9"/>
<path fill-rule="evenodd" clip-rule="evenodd" d="M4.82133 46.992C4.00334 52.317 4.0646 57.7402 5.00266 63.0453C5.02198 63.3214 5.14528 63.5799 5.3477 63.7687C5.55011 63.9574 5.81657 64.0624 6.09333 64.0624C6.37009 64.0624 6.63655 63.9574 6.83897 63.7687C7.04138 63.5799 7.16468 63.3214 7.184 63.0453C7.976 57.712 7.87733 52.2853 6.89333 46.984C6.8999 46.8435 6.87783 46.7032 6.82846 46.5715C6.7791 46.4398 6.70347 46.3195 6.60618 46.218C6.50888 46.1164 6.39195 46.0357 6.2625 45.9807C6.13304 45.9258 5.99376 45.8977 5.85312 45.8983C5.71249 45.8988 5.57343 45.9279 5.4444 45.9839C5.31537 46.0399 5.19907 46.1215 5.10256 46.2238C5.00606 46.3261 4.93136 46.4469 4.88301 46.579C4.83467 46.7111 4.81368 46.8516 4.82133 46.992Z" fill="#1F80B9"/>
<path fill-rule="evenodd" clip-rule="evenodd" d="M19.2987 37.0667C18.6773 43.5307 18.9253 50.0534 20.0373 56.4507C20.0639 56.728 20.1954 56.9847 20.4049 57.1684C20.6143 57.352 20.886 57.4488 21.1644 57.4389C21.4428 57.4291 21.707 57.3133 21.9029 57.1153C22.0988 56.9172 22.2118 56.6519 22.2187 56.3734C22.8352 49.9022 22.5498 43.3767 21.3707 36.984C21.3699 36.8449 21.3411 36.7074 21.2861 36.5797C21.2311 36.4519 21.1509 36.3365 21.0504 36.2404C20.9499 36.1442 20.8311 36.0693 20.701 36.02C20.571 35.9707 20.4323 35.948 20.2933 35.9534C20.1543 35.9587 20.0178 35.992 19.892 36.0512C19.7661 36.1104 19.6534 36.1943 19.5606 36.2979C19.4678 36.4015 19.3968 36.5227 19.3518 36.6544C19.3068 36.786 19.2887 36.928 19.2987 37.0667Z" fill="#1F80B9"/>
<path fill-rule="evenodd" clip-rule="evenodd" d="M35.28 37.8773C34.3596 44.6725 34.4765 51.568 35.6267 58.328C35.6472 58.6173 35.7818 58.8865 36.0008 59.0766C36.2198 59.2666 36.5054 59.3619 36.7947 59.3413C37.0839 59.3208 37.3532 59.1863 37.5432 58.9672C37.7333 58.7482 37.8285 58.4626 37.808 58.1733C38.3111 51.394 38.1575 44.5818 37.3493 37.832C37.3311 37.5656 37.2109 37.3165 37.0136 37.1365C36.8164 36.9565 36.5573 36.8595 36.2904 36.8657C36.0234 36.8719 35.7692 36.9808 35.5805 37.1697C35.3918 37.3586 35.2832 37.6131 35.2773 37.88L35.28 37.8773Z" fill="#1F80B9"/>
<path fill-rule="evenodd" clip-rule="evenodd" d="M50.5867 26.64C49.8117 38.7173 49.9035 50.8346 50.8613 62.8987C50.8806 63.1748 51.0039 63.4333 51.2064 63.622C51.4088 63.8108 51.6752 63.9157 51.952 63.9157C52.2288 63.9157 52.4952 63.8108 52.6976 63.622C52.9 63.4333 53.0233 63.1748 53.0427 62.8987C53.8504 50.8182 53.7256 38.6934 52.6693 26.632C52.6495 26.3691 52.5308 26.1235 52.3372 25.9446C52.1435 25.7657 51.8893 25.6668 51.6256 25.6678C51.362 25.6688 51.1085 25.7697 50.9162 25.9501C50.7239 26.1305 50.6071 26.377 50.5893 26.64H50.5867Z" fill="#1F80B9"/>
<path fill-rule="evenodd" clip-rule="evenodd" d="M53.9013 19.4427C52.4846 19.2758 51.0624 19.1593 49.6373 19.0934C49.4957 19.103 49.3536 19.0838 49.2196 19.037C49.0856 18.9901 48.9625 18.9167 48.8577 18.8209C48.7529 18.7252 48.6685 18.6092 48.6098 18.48C48.551 18.3508 48.519 18.211 48.5158 18.0691C48.5126 17.9272 48.5381 17.7861 48.5909 17.6544C48.6437 17.5226 48.7226 17.4029 48.8229 17.3025C48.9233 17.2021 49.0429 17.123 49.1746 17.0701C49.3063 17.0172 49.4474 16.9916 49.5893 16.9947C53.7688 16.5199 57.9776 16.355 62.1813 16.5014C64.616 16.4907 64.1227 20.3387 63.4507 25.5894C63.2294 27.248 63.0382 28.9105 62.8773 30.576C62.8878 30.7257 62.8674 30.8759 62.8173 31.0173C62.7672 31.1587 62.6886 31.2883 62.5863 31.398C62.484 31.5077 62.3602 31.5952 62.2226 31.655C62.0851 31.7148 61.9367 31.7457 61.7867 31.7457C61.6367 31.7457 61.4883 31.7148 61.3507 31.655C61.2131 31.5952 61.0893 31.5077 60.987 31.398C60.8847 31.2883 60.8061 31.1587 60.756 31.0173C60.706 30.8759 60.6855 30.7257 60.696 30.576C60.44 26.696 60.472 25.312 60.5093 23.6427C60.5227 23.12 60.536 22.5707 60.5387 21.9067C59.7787 22.4934 58.768 23.2427 57.4373 24.232C55.0347 26.0187 51.592 28.5787 46.712 32.3254C39.3227 37.9974 37.0693 40.88 35.3333 40.5947C33.8533 40.3547 32.752 37.8054 29.1627 32.7227C19.6907 39.3547 15.4933 42.0934 11.44 44.736C8.66134 46.5494 5.94667 48.32 1.64534 51.272C1.42192 51.409 1.15505 51.4565 0.898078 51.4052C0.64111 51.3539 0.412992 51.2074 0.259345 50.9951C0.105698 50.7829 0.0378488 50.5204 0.0693658 50.2603C0.100883 50.0001 0.229443 49.7615 0.429336 49.592C6.3243 45.0339 12.3077 40.5913 18.376 36.2667C25.7467 30.9894 28.152 28.4454 29.9333 28.8267C31.472 29.1547 32.5467 31.6747 35.96 36.5094C44.2373 29.96 50.0987 26.0747 59.04 20.144L59.4533 19.8694C57.1067 19.784 55.4613 19.608 53.9013 19.4427Z" fill="#1F80B9"/>
</g>
<defs>
<clipPath id="clip0_0_1161">
<rect width="64" height="64" fill="white" transform="translate(0 0.357361)"/>
</clipPath>
</defs>
</svg>
