<svg width="64" height="64" viewBox="0 0 64 64" fill="none" xmlns="http://www.w3.org/2000/svg">
<path fill-rule="evenodd" clip-rule="evenodd" d="M39.4064 30.2037C39.5153 30.1906 39.6204 30.1559 39.7157 30.1017C39.811 30.0475 39.8946 29.9749 39.9616 29.8881C40.0285 29.8013 40.0775 29.7021 40.1058 29.5961C40.134 29.4902 40.1408 29.3797 40.1259 29.2711C40.1184 28.0263 40.4902 26.8088 41.1917 25.7805C41.858 24.7785 42.6067 23.8337 43.4299 22.956C44.6264 21.5723 45.8985 20.2558 47.2403 19.0125C48.0551 19.1929 48.8844 19.2999 49.7183 19.3322C49.8887 19.2996 50.0424 19.2086 50.153 19.0748C50.2635 18.9411 50.324 18.773 50.324 18.5995C50.324 18.426 50.2635 18.2579 50.153 18.1241C50.0424 17.9904 49.8887 17.8994 49.7183 17.8667C44.9754 17.3871 42.897 14.2962 43.1635 11.2319C43.371 9.54418 44.2264 8.00315 45.5489 6.93422C46.8713 5.8653 48.5575 5.35214 50.2512 5.5031C51.7792 5.47375 53.2582 6.04226 54.3731 7.08749C55.488 8.13272 56.1507 9.57203 56.2199 11.0987C56.3748 11.8826 56.3737 12.6894 56.2164 13.4728C56.0591 14.2562 55.7488 15.001 55.3033 15.6643C54.8578 16.3276 54.2858 16.8966 53.62 17.3385C52.9543 17.7804 52.2079 18.0867 51.4236 18.2398C51.2046 18.268 51.0057 18.3822 50.8708 18.5571C50.7359 18.732 50.6759 18.9533 50.7042 19.1724C50.7325 19.3914 50.8466 19.5903 51.0215 19.7252C51.1964 19.8601 51.4177 19.9201 51.6368 19.8918C52.5667 19.8095 53.4717 19.5471 54.3014 19.1191C54.9614 19.8585 55.5585 20.6518 56.0866 21.4905C56.4064 21.9702 56.6995 22.4498 56.9659 22.9294C57.2591 23.4357 57.5522 23.9419 57.8186 24.4482C58.4655 25.7077 59.0091 27.0177 59.444 28.3651C59.463 28.4711 59.5032 28.5721 59.5622 28.6622C59.6212 28.7523 59.6978 28.8295 59.7874 28.8892C59.877 28.9489 59.9777 28.9899 60.0835 29.0098C60.1894 29.0296 60.2981 29.0278 60.4032 29.0046C60.6188 28.9657 60.81 28.8428 60.9349 28.6629C61.0598 28.483 61.1082 28.2609 61.0694 28.0454C60.9815 26.4811 60.7041 24.9332 60.2434 23.4357C60.055 22.7619 59.796 22.1099 59.4706 21.4905C59.1192 20.8831 58.7087 20.3119 58.2449 19.7852C57.566 19.0996 56.8053 18.5 55.9801 17.9999C56.9214 17.0728 57.6479 15.9504 58.1082 14.712C58.5686 13.4735 58.7517 12.1492 58.6446 10.8322C58.6342 9.73245 58.4064 8.64557 57.9743 7.63418C57.5421 6.62279 56.9142 5.70686 56.1266 4.93913C55.3391 4.17139 54.4075 3.567 53.3854 3.16077C52.3633 2.75453 51.271 2.55446 50.1713 2.57208C47.8151 2.4989 45.5237 3.34968 43.7863 4.94277C42.0488 6.53587 41.0029 8.74506 40.8719 11.0987C40.8287 12.6051 41.2269 14.0913 42.0175 15.3743C42.8082 16.6573 43.9567 17.6811 45.3218 18.3197C44.1873 18.9111 43.116 19.6164 42.1243 20.4247C41.1779 21.228 40.3601 22.1715 39.6995 23.2225C39.0847 24.1302 38.6593 25.1526 38.4487 26.2285C38.2381 27.3044 38.2467 28.4117 38.4738 29.4842C38.4833 29.5946 38.5156 29.7017 38.5686 29.799C38.6217 29.8962 38.6943 29.9813 38.782 30.0489C38.8697 30.1166 38.9705 30.1652 39.078 30.1919C39.1855 30.2185 39.2973 30.2225 39.4064 30.2037Z" fill="#1F80B9"/>
<path fill-rule="evenodd" clip-rule="evenodd" d="M22.4593 52.9592C22.1402 52.3655 21.7655 51.8035 21.3402 51.2805C20.6708 50.5617 19.9092 49.9345 19.0753 49.4153C20.011 48.4952 20.7342 47.3817 21.1945 46.1528C21.6547 44.9239 21.8409 43.6093 21.7399 42.3009C21.7369 41.1887 21.5107 40.0883 21.0748 39.065C20.6389 38.0417 20.002 37.1163 19.202 36.3436C18.4019 35.5708 17.4549 34.9665 16.4171 34.5664C15.3793 34.1663 14.2717 33.9785 13.16 34.0141C10.8045 33.9269 8.50926 34.7693 6.76947 36.3596C5.02969 37.9498 3.98492 40.1603 3.86063 42.5141C3.81507 44.0176 4.20932 45.5017 4.99503 46.7844C5.78074 48.0671 6.92373 49.0926 8.28382 49.7351C7.14937 50.3265 6.07803 51.0318 5.08634 51.8401C4.14937 52.6454 3.34071 53.5888 2.68822 54.6379C2.0699 55.549 1.64251 56.5759 1.43186 57.6567C1.2212 58.7374 1.23163 59.8497 1.46252 60.9263C1.47537 61.0343 1.51012 61.1385 1.56464 61.2326C1.61916 61.3267 1.69231 61.4087 1.77961 61.4735C1.86691 61.5384 1.96652 61.5847 2.07236 61.6098C2.17819 61.6348 2.28802 61.638 2.39512 61.6191C2.50396 61.6059 2.6091 61.5713 2.70442 61.5171C2.79973 61.4629 2.8833 61.3903 2.95026 61.3035C3.01723 61.2167 3.06624 61.1175 3.09445 61.0115C3.12265 60.9056 3.12949 60.7951 3.11455 60.6865C3.10709 59.4417 3.47886 58.2242 4.18038 57.1959C4.84672 56.1939 5.59539 55.2491 6.41862 54.3714C7.62194 52.994 8.89366 51.6778 10.229 50.4279C11.039 50.6343 11.8711 50.7416 12.707 50.7476C12.8774 50.715 13.0311 50.624 13.1417 50.4902C13.2522 50.3565 13.3127 50.1884 13.3127 50.0149C13.3127 49.8414 13.2522 49.6733 13.1417 49.5395C13.0311 49.4058 12.8774 49.3148 12.707 49.2821C8.01737 48.8025 5.99229 45.7116 6.25875 42.6473C6.44067 40.9403 7.28504 39.3727 8.61039 38.2815C9.93574 37.1903 11.6363 36.6627 13.3465 36.8119C14.8739 36.8114 16.3412 37.407 17.4361 38.472C18.531 39.537 19.1669 40.9873 19.2086 42.5141C19.5222 44.0935 19.196 45.7327 18.3017 47.0717C17.4074 48.4108 16.018 49.3399 14.439 49.6552C14.3305 49.6674 14.2255 49.7009 14.13 49.7537C14.0344 49.8065 13.9503 49.8777 13.8822 49.963C13.8142 50.0484 13.7636 50.1463 13.7334 50.2512C13.7032 50.3561 13.694 50.466 13.7062 50.5744C13.7185 50.6829 13.752 50.7879 13.8048 50.8834C13.8576 50.979 13.9287 51.0632 14.0141 51.1312C14.0995 51.1992 14.1974 51.2498 14.3023 51.28C14.4072 51.3102 14.517 51.3194 14.6255 51.3072C15.5554 51.2249 16.4604 50.9625 17.2901 50.5345C17.9501 51.2739 18.5472 52.0672 19.0753 52.9059C19.3937 53.3788 19.6872 53.868 19.9546 54.3714C20.2477 54.8511 20.5408 55.3573 20.8073 55.8636C21.4542 57.1231 21.9978 58.4331 22.4327 59.7805C22.5117 59.9476 22.6444 60.0833 22.8096 60.166C22.9748 60.2488 23.163 60.2737 23.3441 60.2369C23.5251 60.2001 23.6886 60.1036 23.8084 59.9629C23.9282 59.8222 23.9973 59.6454 24.0048 59.4608C23.9169 57.8965 23.6395 56.3486 23.1788 54.8511C22.9995 54.1991 22.7586 53.5656 22.4593 52.9592Z" fill="#1F80B9"/>
<path fill-rule="evenodd" clip-rule="evenodd" d="M4.79367 27.5391C7.95764 29.8045 11.7752 30.9741 15.6651 30.8698C21.1313 30.7126 26.5844 30.25 31.9989 29.4842C32.0983 29.4812 32.1959 29.4576 32.2857 29.4149C32.3754 29.3722 32.4554 29.3114 32.5205 29.2363C32.5855 29.1612 32.6344 29.0735 32.6638 28.9785C32.6933 28.8836 32.7028 28.7836 32.6917 28.6849C32.685 28.5903 32.6596 28.498 32.6171 28.4133C32.5745 28.3285 32.5157 28.2531 32.4439 28.1911C32.3721 28.1292 32.2887 28.0821 32.1986 28.0526C32.1086 28.023 32.0135 28.0115 31.919 28.0187C26.6102 28.613 21.2735 28.9243 15.9316 28.9513C12.5409 28.9322 9.24862 27.8098 6.55229 25.7539C5.26653 24.5191 4.25734 23.0257 3.59133 21.3721C2.92532 19.7186 2.61766 17.9426 2.68866 16.1614C2.51752 12.6108 3.67663 9.12394 5.93944 6.38242C7.51924 4.81672 9.60919 3.87103 11.8281 3.71785C14.1552 3.44781 16.5127 3.77804 18.6761 4.67709C19.7448 5.11644 20.7055 5.78225 21.4921 6.62865C22.2787 7.47506 22.8725 8.48193 23.2325 9.5799C24.5115 13.257 24.1917 17.7068 25.6839 21.2774C26.3001 22.7291 27.2825 23.9961 28.535 24.9545C30.2755 26.2758 32.1729 27.3766 34.1839 28.2319C34.2816 28.282 34.3884 28.3121 34.498 28.3204C34.6075 28.3287 34.7176 28.3151 34.8218 28.2804C34.926 28.2457 35.0222 28.1905 35.1049 28.1181C35.1875 28.0457 35.2549 27.9576 35.303 27.8589C35.3689 27.6691 35.3678 27.4625 35.2999 27.2734C35.2321 27.0844 35.1015 26.9242 34.93 26.8197C33.0328 25.9696 31.2437 24.8962 29.6008 23.6222C28.6288 22.8251 27.869 21.7998 27.3892 20.6379C25.8704 16.1614 26.6698 10.8323 24.5648 6.80875C23.4667 4.80871 21.7316 3.23307 19.6353 2.33227C17.123 1.2303 14.3755 0.772378 11.6416 0.999983C8.73029 1.18648 5.98094 2.40527 3.88772 4.43728C1.17633 7.72316 -0.202537 11.9073 0.0240893 16.1614C-0.0244601 18.2865 0.375172 20.3979 1.19696 22.3583C2.01875 24.3186 3.24425 26.0839 4.79367 27.5391Z" fill="#1F80B9"/>
<path fill-rule="evenodd" clip-rule="evenodd" d="M60.1101 36.9451C58.0523 34.9085 55.3258 33.6873 52.4362 33.5078C49.7017 33.2663 46.9508 33.7248 44.4424 34.84C42.3435 35.7234 40.6058 37.292 39.513 39.2899C37.3014 43.34 38.2074 48.7491 36.582 53.0657C36.0943 54.2672 35.305 55.3226 34.2904 56.13C32.6483 57.4124 30.8593 58.4947 28.9613 59.3541C28.7669 59.4566 28.6195 59.6302 28.55 59.8387C28.4805 60.0473 28.4942 60.2746 28.5882 60.4732C28.6954 60.663 28.8692 60.8063 29.076 60.8753C29.2828 60.9442 29.5078 60.9338 29.7074 60.8463C31.714 59.9714 33.6101 58.8624 35.3563 57.5422C36.6018 56.5878 37.5831 55.3314 38.2073 53.8917C39.6995 50.2946 39.3798 45.898 40.6588 42.1676C41.0167 41.0395 41.6207 40.005 42.427 39.1387C43.2334 38.2724 44.2221 37.5959 45.3218 37.1582C47.4631 36.2818 49.7912 35.9609 52.0898 36.2256C54.3087 36.3788 56.3987 37.3245 57.9785 38.8902C60.2552 41.6076 61.4421 45.0733 61.3092 48.6159C61.4019 50.3619 61.1325 52.1083 60.5181 53.7453C59.9036 55.3823 58.9574 56.8746 57.7387 58.1284C55.0399 60.1765 51.7473 61.2897 48.3594 61.2992C43.0167 61.2985 37.6785 60.9871 32.3719 60.3666C32.264 60.346 32.1529 60.3494 32.0464 60.3766C31.94 60.4039 31.8409 60.4543 31.7562 60.5243C31.6715 60.5943 31.6034 60.6822 31.5566 60.7816C31.5098 60.881 31.4855 60.9895 31.4855 61.0994C31.4855 61.2093 31.5098 61.3178 31.5566 61.4172C31.6034 61.5166 31.6715 61.6044 31.7562 61.6744C31.8409 61.7444 31.94 61.7949 32.0464 61.8221C32.1529 61.8494 32.264 61.8528 32.3719 61.8322C37.7575 62.6396 43.1839 63.1466 48.6258 63.351C52.5158 63.4552 56.3333 62.2856 59.4973 60.0202C60.9903 58.5425 62.1594 56.7701 62.9301 54.8158C63.7008 52.8616 64.0562 50.7683 63.9738 48.6692C64.2109 44.4137 62.8308 40.2258 60.1101 36.9451Z" fill="#1F80B9"/>
<path fill-rule="evenodd" clip-rule="evenodd" d="M11.963 12.5107H13.3485H14.7341H18.0648C18.2874 12.546 18.515 12.4915 18.6973 12.3591C18.8797 12.2266 19.0021 12.0272 19.0374 11.8046C19.0727 11.582 19.0182 11.3544 18.8858 11.1721C18.7533 10.9897 18.5539 10.8673 18.3313 10.832C17.2122 10.4856 16.1197 10.1392 14.9739 9.89941C14.4825 9.79636 13.9834 9.73397 13.4818 9.71289C12.9763 9.67297 12.4684 9.67297 11.963 9.71289C10.784 9.87416 9.62383 10.1508 8.49901 10.5389C8.40135 10.5655 8.3104 10.6125 8.23212 10.6766C8.15383 10.7408 8.08997 10.8208 8.0447 10.9113C7.99943 11.0018 7.97378 11.1009 7.96942 11.202C7.96506 11.3031 7.98208 11.4041 8.01938 11.4982C8.04596 11.6917 8.14735 11.867 8.3018 11.9866C8.45624 12.1062 8.65141 12.1604 8.8454 12.1377C9.83129 12.1643 10.8705 12.4041 11.963 12.5107Z" fill="#1F80B9"/>
<path fill-rule="evenodd" clip-rule="evenodd" d="M45.9334 45.0721H49.2641H50.6497H52.0352C53.1277 45.0721 54.1669 44.7257 55.3127 44.6724C55.4157 44.7007 55.5236 44.7064 55.6291 44.6894C55.7345 44.6723 55.8351 44.6328 55.924 44.5735C56.0129 44.5143 56.088 44.4366 56.1443 44.3457C56.2005 44.2549 56.2366 44.1531 56.2501 44.0471C56.2636 43.9411 56.2542 43.8334 56.2224 43.7314C56.1907 43.6294 56.1375 43.5354 56.0663 43.4557C55.9951 43.376 55.9076 43.3126 55.8098 43.2697C55.7119 43.2267 55.606 43.2053 55.4992 43.2069C54.3753 42.8157 53.2147 42.539 52.0352 42.3809C51.5298 42.3409 51.0219 42.3409 50.5164 42.3809C50.0161 42.4167 49.518 42.479 49.0243 42.5674C47.8875 42.8217 46.7665 43.142 45.6669 43.5266C45.4498 43.5658 45.2562 43.6876 45.127 43.8665C44.9979 44.0454 44.943 44.2674 44.9741 44.4859C45.0305 44.6866 45.1607 44.8586 45.3386 44.9673C45.5166 45.0761 45.729 45.1135 45.9334 45.0721Z" fill="#1F80B9"/>
<path fill-rule="evenodd" clip-rule="evenodd" d="M7.3247 19.8919C7.34652 19.9851 7.38674 20.073 7.443 20.1505C7.49926 20.228 7.57042 20.2935 7.65232 20.3432C7.73422 20.3928 7.8252 20.4256 7.91993 20.4396C8.01467 20.4536 8.11125 20.4486 8.20401 20.4248H11.9611H13.5598L15.1585 20.2649L18.9689 19.7853C19.0774 19.7888 19.1855 19.771 19.2871 19.7327C19.3886 19.6945 19.4817 19.6365 19.5609 19.5623C19.6401 19.4881 19.7038 19.3989 19.7486 19.3C19.7933 19.2011 19.8181 19.0944 19.8215 18.9859C19.8251 18.8774 19.8072 18.7693 19.769 18.6677C19.7307 18.5661 19.6728 18.4731 19.5986 18.3939C19.5243 18.3147 19.4352 18.2509 19.3363 18.2062C19.2374 18.1615 19.1307 18.1367 19.0222 18.1332C17.7263 17.8957 16.4189 17.7267 15.1052 17.627C14.5375 17.587 13.9677 17.587 13.3999 17.627C12.8348 17.6437 12.2726 17.7151 11.7212 17.8401C10.4518 18.1107 9.21142 18.5033 8.01749 19.0125C7.91176 19.0184 7.80848 19.0467 7.71452 19.0955C7.62056 19.1443 7.53807 19.2126 7.47254 19.2958C7.40701 19.3789 7.35993 19.4751 7.33444 19.5779C7.30895 19.6807 7.30563 19.7877 7.3247 19.8919Z" fill="#1F80B9"/>
<path fill-rule="evenodd" clip-rule="evenodd" d="M44.1757 51.4404C44.179 51.5513 44.2046 51.6603 44.251 51.761C44.2974 51.8618 44.3636 51.9521 44.4457 52.0267C44.5277 52.1013 44.624 52.1586 44.7286 52.1952C44.8333 52.2319 44.9443 52.247 45.055 52.2398L48.8387 52.7194L50.4374 52.8793H52.0361H55.7932C55.9838 52.9192 56.1825 52.8831 56.3468 52.7785C56.511 52.674 56.628 52.5093 56.6725 52.3197C56.6963 52.227 56.7013 52.1304 56.6873 52.0357C56.6733 51.9409 56.6405 51.8499 56.5909 51.768C56.5413 51.6862 56.4758 51.615 56.3983 51.5587C56.3208 51.5025 56.2328 51.4622 56.1396 51.4404C54.9048 50.9047 53.6193 50.4941 52.3026 50.2147C51.743 50.2147 51.1835 50.0549 50.5973 50.0016C50.0111 49.9483 49.4782 50.0016 48.9186 50.0016C47.6048 50.0996 46.2972 50.2686 45.0017 50.5078C44.8849 50.511 44.77 50.5381 44.6642 50.5874C44.5583 50.6368 44.4637 50.7074 44.3862 50.7948C44.3088 50.8823 44.2501 50.9847 44.2139 51.0958C44.1777 51.2068 44.1647 51.3241 44.1757 51.4404Z" fill="#1F80B9"/>
</svg>
