<svg width="64" height="65" viewBox="0 0 64 65" fill="none" xmlns="http://www.w3.org/2000/svg">
<g clipPath="url(#clip0_0_1415)">
<path fill-rule="evenodd" clip-rule="evenodd" d="M63.7333 14.9975C63.6563 12.0692 63.3352 9.15239 62.7733 6.27747C62.614 5.26122 62.1271 4.32484 61.3867 3.6108C59.0335 2.66449 56.5345 2.1322 54 2.03747C44.7097 1.19605 35.3795 0.875543 26.0533 1.07747C19.8045 1.08069 13.5647 1.55312 7.38667 2.4908C5.46641 2.68018 3.64195 3.42108 2.13334 4.62413C1.13236 6.5267 0.584771 8.63493 0.533336 10.7841C-0.0482822 18.2006 -0.172962 25.6457 0.160002 33.0775C0.316406 41.4694 1.15472 49.8347 2.66667 58.0908C2.87172 59.2481 3.35695 60.3376 4.08 61.2641C5.55583 62.1668 7.23262 62.6891 8.96 62.7841C14.856 63.4478 20.7871 63.7506 26.72 63.6908C37.7972 63.8372 48.8716 63.2314 59.8667 61.8775C59.974 61.865 60.0776 61.8303 60.1707 61.7754C60.2638 61.7205 60.3443 61.6467 60.4071 61.5587C60.4699 61.4708 60.5136 61.3707 60.5354 61.2648C60.5571 61.159 60.5564 61.0497 60.5333 60.9441C60.4942 60.7339 60.3751 60.5469 60.2011 60.4226C60.0271 60.2983 59.8116 60.2463 59.6 60.2775C48.6626 61.4303 37.6596 61.8401 26.6667 61.5041C20.8442 61.457 15.0295 61.0652 9.25333 60.3308C8.03387 60.2629 6.84292 59.9356 5.76 59.3708C5.09998 57.9466 4.72839 56.4059 4.66667 54.8375C3.76935 47.5899 3.26195 40.2994 3.14667 32.9975C2.86735 25.67 3.02763 18.3324 3.62667 11.0241C3.63511 9.50334 3.9432 7.99912 4.53334 6.59747C4.77558 6.42004 5.04605 6.28481 5.33334 6.19747C6.52369 5.80629 7.74619 5.52074 8.98667 5.34413C16.6188 4.37999 24.3076 3.93452 32 4.0108C40.72 4.0108 49.4667 4.22413 54.9867 4.8108C56.6362 4.88816 58.2683 5.18408 59.84 5.6908C59.4933 5.98413 60.32 6.8108 60.5067 7.8508C61.1322 12.0101 61.4885 16.2055 61.5733 20.4108C62 32.1708 61.76 47.8241 61.5733 57.7441C61.5698 57.8667 61.5904 57.9888 61.6341 58.1034C61.6777 58.218 61.7435 58.3229 61.8277 58.412C61.9119 58.5012 62.0129 58.5729 62.1248 58.623C62.2367 58.6731 62.3574 58.7007 62.48 58.7041C62.723 58.7042 62.9564 58.6096 63.1307 58.4403C63.305 58.271 63.4064 58.0404 63.4133 57.7975C63.7867 46.2508 64.32 27.0241 63.7333 14.9975Z" fill="#1F80B9"/>
<path fill-rule="evenodd" clip-rule="evenodd" d="M56.4 33.1308C56.7459 32.6479 56.9742 32.0908 57.0667 31.5041C57.4657 28.4011 57.5818 25.2681 57.4133 22.1441C57.336 19.0393 57.015 15.9453 56.4533 12.8908C56.3527 12.3027 56.0841 11.7563 55.68 11.3174C55.3777 11.0487 55.0097 10.8647 54.6133 10.7841C52.7422 10.422 50.839 10.2522 48.9333 10.2774C44.1661 10.1874 39.3985 10.4369 34.6667 11.0241C33.3867 11.2374 32.8533 12.9441 32.8533 12.9974C32.6667 17.1841 32.32 24.2241 32.4533 28.5974C32.4774 29.866 32.6474 31.1277 32.96 32.3574C33.0982 32.7132 33.3282 33.0261 33.6267 33.2641C34.5896 33.7168 35.6309 33.9794 36.6933 34.0374C40.102 34.4183 43.5302 34.5963 46.96 34.5708C49.6434 34.656 52.3277 34.4323 54.96 33.9041C55.5002 33.7789 55.9973 33.5119 56.4 33.1308ZM54.1333 30.0374V30.8908C54.1333 31.1574 53.44 31.1841 53.0133 31.2374C50.3064 31.5698 47.5804 31.7212 44.8533 31.6908C41.7333 31.6908 38.5867 31.6908 36.6133 31.4508C36.1333 31.4508 35.6533 31.1841 35.3333 31.1308C35.273 30.9848 35.2283 30.8328 35.2 30.6774C34.9033 28.6808 34.7252 26.6684 34.6667 24.6508V13.0508C34.6667 12.3841 34.32 12.7041 34.9333 12.6241C38.2136 12.332 41.5094 12.2519 44.8 12.3841C47.4231 12.4144 50.0416 12.6104 52.64 12.9708C53.1467 12.9708 53.6267 13.3708 53.8667 13.3441C54.1067 13.3174 53.8667 14.0374 53.8667 14.3574C54.1789 16.9688 54.3569 19.5945 54.4 22.2241C54.464 24.8315 54.375 27.4404 54.1333 30.0374Z" fill="#1F80B9"/>
<path fill-rule="evenodd" clip-rule="evenodd" d="M21.76 16.0908C22.2837 16.1311 22.8097 16.1311 23.3333 16.0908C23.8481 16.1303 24.3652 16.1303 24.88 16.0908C26.4 15.8775 27.7067 15.5842 28.48 15.4775C28.6971 15.4404 28.8941 15.3277 29.0362 15.1593C29.1782 14.991 29.2561 14.7778 29.2561 14.5575C29.2561 14.3372 29.1782 14.124 29.0362 13.9557C28.8941 13.7873 28.6971 13.6746 28.48 13.6375C27.7067 13.6375 26.3733 13.2908 24.8 13.1842H23.2267C22.7115 13.1577 22.1952 13.1577 21.68 13.1842C20.24 13.3975 19.0133 13.7442 18.1067 13.9042C17.9875 13.8825 17.8651 13.8873 17.748 13.9182C17.6309 13.949 17.5221 14.0052 17.4291 14.0828C17.3361 14.1604 17.2614 14.2575 17.21 14.3671C17.1587 14.4768 17.1321 14.5964 17.1321 14.7175C17.1321 14.8386 17.1587 14.9582 17.21 15.0679C17.2614 15.1775 17.3361 15.2746 17.4291 15.3522C17.5221 15.4298 17.6309 15.486 17.748 15.5168C17.8651 15.5477 17.9875 15.5525 18.1067 15.5308C19.3121 15.7906 20.5321 15.9776 21.76 16.0908Z" fill="#1F80B9"/>
<path fill-rule="evenodd" clip-rule="evenodd" d="M9.65333 24.1708C9.54828 24.1708 9.44425 24.1915 9.34719 24.2317C9.25013 24.2719 9.16194 24.3309 9.08765 24.4052C9.01336 24.4794 8.95443 24.5676 8.91423 24.6647C8.87403 24.7618 8.85333 24.8658 8.85333 24.9708C8.84977 25.0759 8.86696 25.1807 8.9039 25.2791C8.94085 25.3775 8.99684 25.4677 9.06866 25.5445C9.14048 25.6212 9.22673 25.6831 9.32248 25.7265C9.41822 25.7699 9.52159 25.7941 9.62667 25.7975C10.5867 25.7975 13.2 26.2508 16.2667 26.3842H19.0667C20 26.3842 20.9867 26.3842 21.8933 26.2242C25.04 25.9842 27.68 25.6375 28.4533 25.5842C28.6705 25.5471 28.8675 25.4344 29.0095 25.266C29.1516 25.0976 29.2295 24.8845 29.2295 24.6642C29.2295 24.4439 29.1516 24.2307 29.0095 24.0623C28.8675 23.894 28.6705 23.7813 28.4533 23.7442C27.68 23.7442 24.9867 23.4508 21.84 23.3175H19.0133C18.08 23.3175 17.12 23.3175 16.3467 23.4508C13.3333 23.6642 10.6667 24.0908 9.65333 24.1708Z" fill="#1F80B9"/>
<path fill-rule="evenodd" clip-rule="evenodd" d="M9.70667 34.3041C10.64 34.3041 13.2533 34.7574 16.32 34.8908H19.1467C20.1067 34.8908 21.04 34.8908 21.9467 34.7308C25.0933 34.4908 27.7333 34.1441 28.5067 34.0908C28.6257 34.0908 28.7436 34.0673 28.8536 34.0217C28.9636 33.9762 29.0636 33.9094 29.1478 33.8252C29.232 33.741 29.2988 33.6411 29.3443 33.5311C29.3899 33.4211 29.4133 33.3032 29.4133 33.1841C29.4134 32.9411 29.3188 32.7077 29.1495 32.5334C28.9802 32.3591 28.7496 32.2577 28.5067 32.2508C27.7333 32.2508 25.0667 31.9574 21.8933 31.8241H19.0667C18.1333 31.8241 17.1733 31.8241 16.2667 31.9574C13.2533 32.1974 10.6667 32.6241 9.73334 32.7041C9.62606 32.7005 9.51915 32.7186 9.41899 32.7572C9.31883 32.7958 9.22747 32.8541 9.15033 32.9288C9.0732 33.0034 9.01187 33.0928 8.97001 33.1917C8.92815 33.2905 8.90661 33.3968 8.90667 33.5041C8.90667 33.7163 8.99096 33.9198 9.14098 34.0698C9.29101 34.2198 9.4945 34.3041 9.70667 34.3041Z" fill="#1F80B9"/>
<path fill-rule="evenodd" clip-rule="evenodd" d="M54.7733 42.2775C54.7733 42.0299 54.675 41.7925 54.5 41.6175C54.3249 41.4425 54.0875 41.3441 53.84 41.3441C52.08 41.3441 45.84 40.9175 38.6133 40.6508C36.48 40.6508 34.2933 40.6508 32.08 40.4908C29.8667 40.3308 27.6533 40.4908 25.52 40.4908C18.5333 40.4908 12.4267 40.9175 10.24 41.0508C10.0299 41.0575 9.83032 41.1439 9.68171 41.2925C9.5331 41.4411 9.44668 41.6407 9.44 41.8508C9.43994 41.9581 9.46149 42.0644 9.50335 42.1632C9.54521 42.2621 9.60653 42.3515 9.68367 42.4261C9.7608 42.5008 9.85217 42.5591 9.95233 42.5977C10.0525 42.6363 10.1594 42.6544 10.2667 42.6508C12.4533 42.6508 18.5067 43.1841 25.4933 43.4508C27.6267 43.4508 29.84 43.4508 32.0267 43.5841C34.2133 43.7175 36.4533 43.5841 38.5867 43.5841C45.84 43.5841 52.08 43.2908 53.84 43.2108C54.0875 43.2108 54.3249 43.1125 54.5 42.9374C54.675 42.7624 54.7733 42.525 54.7733 42.2775Z" fill="#1F80B9"/>
<path fill-rule="evenodd" clip-rule="evenodd" d="M31.4133 49.5841C29.8667 49.5841 28.24 49.4241 26.64 49.3975C25.04 49.3708 23.4133 49.3975 21.84 49.3975C16.72 49.3975 12.2667 49.8241 10.6667 49.9308C10.4542 49.944 10.2544 50.0361 10.1064 50.1891C9.95842 50.342 9.87291 50.5447 9.86667 50.7575C9.86661 50.8648 9.88815 50.9711 9.93001 51.0699C9.97187 51.1687 10.0332 51.2582 10.1103 51.3328C10.1875 51.4074 10.2788 51.4658 10.379 51.5044C10.4792 51.543 10.5861 51.5611 10.6933 51.5575C12.2933 51.5575 16.6933 52.0908 21.8133 52.3575C23.36 52.3575 24.96 52.4908 26.5867 52.5175C28.2133 52.5441 29.8133 52.5175 31.36 52.5175C36.6933 52.5175 41.2267 52.2241 42.5333 52.1708C42.7762 52.1639 43.0068 52.0625 43.1761 51.8882C43.3454 51.7139 43.4401 51.4805 43.44 51.2375C43.44 50.997 43.3445 50.7664 43.1744 50.5964C43.0044 50.4263 42.7738 50.3308 42.5333 50.3308C41.2533 50.2241 36.72 49.8508 31.4133 49.5841Z" fill="#1F80B9"/>
</g>
<defs>
<clipPath id="clip0_0_1415">
<rect width="64" height="64" fill="white" transform="translate(0 0.357422)"/>
</clipPath>
</defs>
</svg>
